<mxfile host="app.diagrams.net" modified="2020-05-22T13:33:56.203Z" agent="5.0 (X11; Linux x86_64) AppleWebKit/537.36 (KHTML, like Gecko) snap Chromium/81.0.4044.138 Chrome/81.0.4044.138 Safari/537.36" etag="P4WMRjWdxCBzNvhtSRop" version="13.1.3" type="github">
  <diagram id="Q7E229yqiWH4B0S2Epc4" name="Page-1">
    <mxGraphModel dx="1038" dy="522" grid="1" gridSize="10" guides="1" tooltips="1" connect="1" arrows="1" fold="1" page="1" pageScale="1" pageWidth="827" pageHeight="1169" math="0" shadow="0">
      <root>
        <mxCell id="0" />
        <mxCell id="1" parent="0" />
        <mxCell id="0U7pnIErnt9a43PBEdF6-11" value="user" style="edgeStyle=orthogonalEdgeStyle;rounded=0;orthogonalLoop=1;jettySize=auto;html=1;entryX=0;entryY=0.5;entryDx=0;entryDy=0;" parent="1" source="0U7pnIErnt9a43PBEdF6-6" target="0U7pnIErnt9a43PBEdF6-4" edge="1">
          <mxGeometry relative="1" as="geometry">
            <Array as="points">
              <mxPoint x="190" y="118" />
            </Array>
          </mxGeometry>
        </mxCell>
        <mxCell id="0U7pnIErnt9a43PBEdF6-6" value="Message" style="swimlane;fontStyle=0;childLayout=stackLayout;horizontal=1;startSize=19;fillColor=none;horizontalStack=0;resizeParent=1;resizeParentMax=0;resizeLast=0;collapsible=1;marginBottom=0;" parent="1" vertex="1">
          <mxGeometry x="60" y="170" width="140" height="97" as="geometry" />
        </mxCell>
        <mxCell id="0U7pnIErnt9a43PBEdF6-7" value="+ id: int" style="text;strokeColor=none;fillColor=none;align=left;verticalAlign=top;spacingLeft=4;spacingRight=4;overflow=hidden;rotatable=0;points=[[0,0.5],[1,0.5]];portConstraint=eastwest;" parent="0U7pnIErnt9a43PBEdF6-6" vertex="1">
          <mxGeometry y="19" width="140" height="26" as="geometry" />
        </mxCell>
        <mxCell id="0U7pnIErnt9a43PBEdF6-12" value="replyTo" style="edgeStyle=orthogonalEdgeStyle;rounded=0;orthogonalLoop=1;jettySize=auto;html=1;entryX=0.5;entryY=0;entryDx=0;entryDy=0;" parent="0U7pnIErnt9a43PBEdF6-6" source="0U7pnIErnt9a43PBEdF6-8" target="0U7pnIErnt9a43PBEdF6-6" edge="1">
          <mxGeometry relative="1" as="geometry">
            <Array as="points">
              <mxPoint x="-20" y="58" />
              <mxPoint x="-20" y="-20" />
              <mxPoint x="70" y="-20" />
            </Array>
          </mxGeometry>
        </mxCell>
        <mxCell id="0U7pnIErnt9a43PBEdF6-8" value="+ time: datetime" style="text;strokeColor=none;fillColor=none;align=left;verticalAlign=top;spacingLeft=4;spacingRight=4;overflow=hidden;rotatable=0;points=[[0,0.5],[1,0.5]];portConstraint=eastwest;" parent="0U7pnIErnt9a43PBEdF6-6" vertex="1">
          <mxGeometry y="45" width="140" height="26" as="geometry" />
        </mxCell>
        <mxCell id="0U7pnIErnt9a43PBEdF6-9" value="+ text: text" style="text;strokeColor=none;fillColor=none;align=left;verticalAlign=top;spacingLeft=4;spacingRight=4;overflow=hidden;rotatable=0;points=[[0,0.5],[1,0.5]];portConstraint=eastwest;" parent="0U7pnIErnt9a43PBEdF6-6" vertex="1">
          <mxGeometry y="71" width="140" height="26" as="geometry" />
        </mxCell>
        <mxCell id="0U7pnIErnt9a43PBEdF6-20" value="user" style="edgeStyle=orthogonalEdgeStyle;rounded=0;orthogonalLoop=1;jettySize=auto;html=1;entryX=0;entryY=0.5;entryDx=0;entryDy=0;" parent="1" source="0U7pnIErnt9a43PBEdF6-14" target="0U7pnIErnt9a43PBEdF6-5" edge="1">
          <mxGeometry relative="1" as="geometry">
            <Array as="points">
              <mxPoint x="324" y="144" />
            </Array>
          </mxGeometry>
        </mxCell>
        <mxCell id="0U7pnIErnt9a43PBEdF6-21" value="likes" style="edgeStyle=orthogonalEdgeStyle;rounded=0;orthogonalLoop=1;jettySize=auto;html=1;endArrow=none;endFill=0;startArrow=classic;startFill=1;" parent="1" source="0U7pnIErnt9a43PBEdF6-17" target="0U7pnIErnt9a43PBEdF6-9" edge="1">
          <mxGeometry relative="1" as="geometry" />
        </mxCell>
        <mxCell id="0U7pnIErnt9a43PBEdF6-2" value="User" style="swimlane;fontStyle=0;childLayout=stackLayout;horizontal=1;startSize=19;fillColor=none;horizontalStack=0;resizeParent=1;resizeParentMax=0;resizeLast=0;collapsible=1;marginBottom=0;" parent="1" vertex="1">
          <mxGeometry x="344" y="60" width="140" height="201" as="geometry" />
        </mxCell>
        <mxCell id="0U7pnIErnt9a43PBEdF6-3" value="+ id: int" style="text;strokeColor=none;fillColor=none;align=left;verticalAlign=top;spacingLeft=4;spacingRight=4;overflow=hidden;rotatable=0;points=[[0,0.5],[1,0.5]];portConstraint=eastwest;" parent="0U7pnIErnt9a43PBEdF6-2" vertex="1">
          <mxGeometry y="19" width="140" height="26" as="geometry" />
        </mxCell>
        <mxCell id="0U7pnIErnt9a43PBEdF6-4" value="+ name: string" style="text;strokeColor=none;fillColor=none;align=left;verticalAlign=top;spacingLeft=4;spacingRight=4;overflow=hidden;rotatable=0;points=[[0,0.5],[1,0.5]];portConstraint=eastwest;" parent="0U7pnIErnt9a43PBEdF6-2" vertex="1">
          <mxGeometry y="45" width="140" height="26" as="geometry" />
        </mxCell>
        <mxCell id="0U7pnIErnt9a43PBEdF6-5" value="+ role: string" style="text;strokeColor=none;fillColor=none;align=left;verticalAlign=top;spacingLeft=4;spacingRight=4;overflow=hidden;rotatable=0;points=[[0,0.5],[1,0.5]];portConstraint=eastwest;" parent="0U7pnIErnt9a43PBEdF6-2" vertex="1">
          <mxGeometry y="71" width="140" height="26" as="geometry" />
        </mxCell>
        <mxCell id="0U7pnIErnt9a43PBEdF6-22" value="+ code: string" style="text;strokeColor=none;fillColor=none;align=left;verticalAlign=top;spacingLeft=4;spacingRight=4;overflow=hidden;rotatable=0;points=[[0,0.5],[1,0.5]];portConstraint=eastwest;" parent="0U7pnIErnt9a43PBEdF6-2" vertex="1">
          <mxGeometry y="97" width="140" height="26" as="geometry" />
        </mxCell>
        <mxCell id="0U7pnIErnt9a43PBEdF6-23" value="+ lastname: string" style="text;strokeColor=none;fillColor=none;align=left;verticalAlign=top;spacingLeft=4;spacingRight=4;overflow=hidden;rotatable=0;points=[[0,0.5],[1,0.5]];portConstraint=eastwest;" parent="0U7pnIErnt9a43PBEdF6-2" vertex="1">
          <mxGeometry y="123" width="140" height="26" as="geometry" />
        </mxCell>
        <mxCell id="0U7pnIErnt9a43PBEdF6-24" value="+ email: string" style="text;strokeColor=none;fillColor=none;align=left;verticalAlign=top;spacingLeft=4;spacingRight=4;overflow=hidden;rotatable=0;points=[[0,0.5],[1,0.5]];portConstraint=eastwest;" parent="0U7pnIErnt9a43PBEdF6-2" vertex="1">
          <mxGeometry y="149" width="140" height="26" as="geometry" />
        </mxCell>
        <mxCell id="0U7pnIErnt9a43PBEdF6-25" value="+ phone: string" style="text;strokeColor=none;fillColor=none;align=left;verticalAlign=top;spacingLeft=4;spacingRight=4;overflow=hidden;rotatable=0;points=[[0,0.5],[1,0.5]];portConstraint=eastwest;" parent="0U7pnIErnt9a43PBEdF6-2" vertex="1">
          <mxGeometry y="175" width="140" height="26" as="geometry" />
        </mxCell>
        <mxCell id="0U7pnIErnt9a43PBEdF6-14" value="Like" style="swimlane;fontStyle=0;childLayout=stackLayout;horizontal=1;startSize=19;fillColor=none;horizontalStack=0;resizeParent=1;resizeParentMax=0;resizeLast=0;collapsible=1;marginBottom=0;" parent="1" vertex="1">
          <mxGeometry x="280" y="320" width="140" height="71" as="geometry" />
        </mxCell>
        <mxCell id="0U7pnIErnt9a43PBEdF6-15" value="+ id: int" style="text;strokeColor=none;fillColor=none;align=left;verticalAlign=top;spacingLeft=4;spacingRight=4;overflow=hidden;rotatable=0;points=[[0,0.5],[1,0.5]];portConstraint=eastwest;" parent="0U7pnIErnt9a43PBEdF6-14" vertex="1">
          <mxGeometry y="19" width="140" height="26" as="geometry" />
        </mxCell>
        <mxCell id="0U7pnIErnt9a43PBEdF6-17" value="+ time: datetime" style="text;strokeColor=none;fillColor=none;align=left;verticalAlign=top;spacingLeft=4;spacingRight=4;overflow=hidden;rotatable=0;points=[[0,0.5],[1,0.5]];portConstraint=eastwest;" parent="0U7pnIErnt9a43PBEdF6-14" vertex="1">
          <mxGeometry y="45" width="140" height="26" as="geometry" />
        </mxCell>
        <mxCell id="0U7pnIErnt9a43PBEdF6-45" value="user" style="edgeStyle=orthogonalEdgeStyle;rounded=0;orthogonalLoop=1;jettySize=auto;html=1;entryX=1;entryY=0.5;entryDx=0;entryDy=0;" parent="1" source="0U7pnIErnt9a43PBEdF6-40" target="0U7pnIErnt9a43PBEdF6-22" edge="1">
          <mxGeometry relative="1" as="geometry" />
        </mxCell>
        <mxCell id="0U7pnIErnt9a43PBEdF6-40" value="Answer" style="swimlane;fontStyle=0;childLayout=stackLayout;horizontal=1;startSize=19;fillColor=none;horizontalStack=0;resizeParent=1;resizeParentMax=0;resizeLast=0;collapsible=1;marginBottom=0;" parent="1" vertex="1">
          <mxGeometry x="530" y="267" width="140" height="71" as="geometry" />
        </mxCell>
        <mxCell id="0U7pnIErnt9a43PBEdF6-41" value="+ id: int" style="text;strokeColor=none;fillColor=none;align=left;verticalAlign=top;spacingLeft=4;spacingRight=4;overflow=hidden;rotatable=0;points=[[0,0.5],[1,0.5]];portConstraint=eastwest;" parent="0U7pnIErnt9a43PBEdF6-40" vertex="1">
          <mxGeometry y="19" width="140" height="26" as="geometry" />
        </mxCell>
        <mxCell id="0U7pnIErnt9a43PBEdF6-42" value="+ text: string" style="text;strokeColor=none;fillColor=none;align=left;verticalAlign=top;spacingLeft=4;spacingRight=4;overflow=hidden;rotatable=0;points=[[0,0.5],[1,0.5]];portConstraint=eastwest;" parent="0U7pnIErnt9a43PBEdF6-40" vertex="1">
          <mxGeometry y="45" width="140" height="26" as="geometry" />
        </mxCell>
        <mxCell id="0U7pnIErnt9a43PBEdF6-52" value="poll" style="edgeStyle=orthogonalEdgeStyle;rounded=0;orthogonalLoop=1;jettySize=auto;html=1;entryX=1;entryY=0.5;entryDx=0;entryDy=0;" parent="1" source="0U7pnIErnt9a43PBEdF6-49" target="0U7pnIErnt9a43PBEdF6-28" edge="1">
          <mxGeometry relative="1" as="geometry" />
        </mxCell>
        <mxCell id="0U7pnIErnt9a43PBEdF6-48" value="Conference" style="swimlane;fontStyle=0;childLayout=stackLayout;horizontal=1;startSize=26;fillColor=none;horizontalStack=0;resizeParent=1;resizeParentMax=0;resizeLast=0;collapsible=1;marginBottom=0;" parent="1" vertex="1">
          <mxGeometry x="640" y="391" width="140" height="78" as="geometry" />
        </mxCell>
        <mxCell id="0U7pnIErnt9a43PBEdF6-49" value="+ id: int" style="text;strokeColor=none;fillColor=none;align=left;verticalAlign=top;spacingLeft=4;spacingRight=4;overflow=hidden;rotatable=0;points=[[0,0.5],[1,0.5]];portConstraint=eastwest;" parent="0U7pnIErnt9a43PBEdF6-48" vertex="1">
          <mxGeometry y="26" width="140" height="26" as="geometry" />
        </mxCell>
        <mxCell id="0U7pnIErnt9a43PBEdF6-50" value="+ url: string" style="text;strokeColor=none;fillColor=none;align=left;verticalAlign=top;spacingLeft=4;spacingRight=4;overflow=hidden;rotatable=0;points=[[0,0.5],[1,0.5]];portConstraint=eastwest;" parent="0U7pnIErnt9a43PBEdF6-48" vertex="1">
          <mxGeometry y="52" width="140" height="26" as="geometry" />
        </mxCell>
        <mxCell id="0U7pnIErnt9a43PBEdF6-53" value="Chat" style="swimlane;fontStyle=0;childLayout=stackLayout;horizontal=1;startSize=19;fillColor=none;horizontalStack=0;resizeParent=1;resizeParentMax=0;resizeLast=0;collapsible=1;marginBottom=0;" parent="1" vertex="1">
          <mxGeometry x="60" y="370" width="140" height="45" as="geometry" />
        </mxCell>
        <mxCell id="0U7pnIErnt9a43PBEdF6-54" value="+ id: int" style="text;strokeColor=none;fillColor=none;align=left;verticalAlign=top;spacingLeft=4;spacingRight=4;overflow=hidden;rotatable=0;points=[[0,0.5],[1,0.5]];portConstraint=eastwest;" parent="0U7pnIErnt9a43PBEdF6-53" vertex="1">
          <mxGeometry y="19" width="140" height="26" as="geometry" />
        </mxCell>
        <mxCell id="0U7pnIErnt9a43PBEdF6-58" value="chat" style="edgeStyle=orthogonalEdgeStyle;rounded=0;orthogonalLoop=1;jettySize=auto;html=1;exitX=0;exitY=0.5;exitDx=0;exitDy=0;entryX=0;entryY=0.5;entryDx=0;entryDy=0;" parent="1" source="0U7pnIErnt9a43PBEdF6-9" target="0U7pnIErnt9a43PBEdF6-54" edge="1">
          <mxGeometry relative="1" as="geometry" />
        </mxCell>
        <mxCell id="0U7pnIErnt9a43PBEdF6-60" value="chat" style="edgeStyle=orthogonalEdgeStyle;rounded=0;orthogonalLoop=1;jettySize=auto;html=1;exitX=0;exitY=0.5;exitDx=0;exitDy=0;entryX=0.486;entryY=1;entryDx=0;entryDy=0;entryPerimeter=0;" parent="1" source="0U7pnIErnt9a43PBEdF6-50" target="0U7pnIErnt9a43PBEdF6-54" edge="1">
          <mxGeometry relative="1" as="geometry">
            <mxPoint x="202.94000000000005" y="421.9939999999999" as="targetPoint" />
          </mxGeometry>
        </mxCell>
        <mxCell id="VhpcOtgaXgjq9XyAFSWe-5" value="question" style="edgeStyle=orthogonalEdgeStyle;rounded=0;orthogonalLoop=1;jettySize=auto;html=1;entryX=0;entryY=0.5;entryDx=0;entryDy=0;" parent="1" source="0U7pnIErnt9a43PBEdF6-41" target="VhpcOtgaXgjq9XyAFSWe-2" edge="1">
          <mxGeometry relative="1" as="geometry" />
        </mxCell>
        <mxCell id="VhpcOtgaXgjq9XyAFSWe-6" value="poll" style="edgeStyle=orthogonalEdgeStyle;rounded=0;orthogonalLoop=1;jettySize=auto;html=1;exitX=1;exitY=0.5;exitDx=0;exitDy=0;entryX=0;entryY=0.5;entryDx=0;entryDy=0;" parent="1" source="VhpcOtgaXgjq9XyAFSWe-2" target="0U7pnIErnt9a43PBEdF6-27" edge="1">
          <mxGeometry relative="1" as="geometry" />
        </mxCell>
        <mxCell id="VhpcOtgaXgjq9XyAFSWe-1" value="Question" style="swimlane;fontStyle=0;childLayout=stackLayout;horizontal=1;startSize=19;fillColor=none;horizontalStack=0;resizeParent=1;resizeParentMax=0;resizeLast=0;collapsible=1;marginBottom=0;" parent="1" vertex="1">
          <mxGeometry x="660" y="90" width="140" height="97" as="geometry" />
        </mxCell>
        <mxCell id="VhpcOtgaXgjq9XyAFSWe-2" value="+ id: int" style="text;strokeColor=none;fillColor=none;align=left;verticalAlign=top;spacingLeft=4;spacingRight=4;overflow=hidden;rotatable=0;points=[[0,0.5],[1,0.5]];portConstraint=eastwest;" parent="VhpcOtgaXgjq9XyAFSWe-1" vertex="1">
          <mxGeometry y="19" width="140" height="26" as="geometry" />
        </mxCell>
        <mxCell id="VhpcOtgaXgjq9XyAFSWe-4" value="+ variants: array" style="text;strokeColor=none;fillColor=none;align=left;verticalAlign=top;spacingLeft=4;spacingRight=4;overflow=hidden;rotatable=0;points=[[0,0.5],[1,0.5]];portConstraint=eastwest;" parent="VhpcOtgaXgjq9XyAFSWe-1" vertex="1">
          <mxGeometry y="45" width="140" height="26" as="geometry" />
        </mxCell>
        <mxCell id="VhpcOtgaXgjq9XyAFSWe-7" value="+ name: string" style="text;strokeColor=none;fillColor=none;align=left;verticalAlign=top;spacingLeft=4;spacingRight=4;overflow=hidden;rotatable=0;points=[[0,0.5],[1,0.5]];portConstraint=eastwest;" parent="VhpcOtgaXgjq9XyAFSWe-1" vertex="1">
          <mxGeometry y="71" width="140" height="26" as="geometry" />
        </mxCell>
        <mxCell id="0U7pnIErnt9a43PBEdF6-26" value="Poll" style="swimlane;fontStyle=0;childLayout=stackLayout;horizontal=1;startSize=19;fillColor=none;horizontalStack=0;resizeParent=1;resizeParentMax=0;resizeLast=0;collapsible=1;marginBottom=0;" parent="1" vertex="1">
          <mxGeometry x="870" y="90" width="140" height="71" as="geometry" />
        </mxCell>
        <mxCell id="0U7pnIErnt9a43PBEdF6-27" value="+ id: int" style="text;strokeColor=none;fillColor=none;align=left;verticalAlign=top;spacingLeft=4;spacingRight=4;overflow=hidden;rotatable=0;points=[[0,0.5],[1,0.5]];portConstraint=eastwest;" parent="0U7pnIErnt9a43PBEdF6-26" vertex="1">
          <mxGeometry y="19" width="140" height="26" as="geometry" />
        </mxCell>
        <mxCell id="0U7pnIErnt9a43PBEdF6-28" value="+ name: string" style="text;strokeColor=none;fillColor=none;align=left;verticalAlign=top;spacingLeft=4;spacingRight=4;overflow=hidden;rotatable=0;points=[[0,0.5],[1,0.5]];portConstraint=eastwest;" parent="0U7pnIErnt9a43PBEdF6-26" vertex="1">
          <mxGeometry y="45" width="140" height="26" as="geometry" />
        </mxCell>
      </root>
    </mxGraphModel>
  </diagram>
</mxfile>
